<mxfile host="app.diagrams.net" agent="Mozilla/5.0 (X11; Ubuntu; Linux x86_64; rv:132.0) Gecko/20100101 Firefox/132.0" version="24.8.4">
  <diagram name="Page-1" id="5f0bae14-7c28-e335-631c-24af17079c00">
    <mxGraphModel dx="441" dy="790" grid="1" gridSize="10" guides="1" tooltips="1" connect="1" arrows="1" fold="1" page="1" pageScale="1" pageWidth="1100" pageHeight="850" background="none" math="0" shadow="0">
      <root>
        <mxCell id="0" />
        <mxCell id="1" parent="0" />
        <mxCell id="39150e848f15840c-1" value="Map creation" style="verticalAlign=top;align=left;spacingTop=8;spacingLeft=2;spacingRight=12;shape=cube;size=10;direction=south;fontStyle=4;html=1;rounded=0;shadow=0;comic=0;labelBackgroundColor=none;strokeWidth=1;fontFamily=Verdana;fontSize=12" parent="1" vertex="1">
          <mxGeometry x="120" y="70" width="330" height="220" as="geometry" />
        </mxCell>
        <mxCell id="39150e848f15840c-2" value="MOBS and enemies" style="verticalAlign=top;align=left;spacingTop=8;spacingLeft=2;spacingRight=12;shape=cube;size=10;direction=south;fontStyle=4;html=1;rounded=0;shadow=0;comic=0;labelBackgroundColor=none;strokeWidth=1;fontFamily=Verdana;fontSize=12" parent="1" vertex="1">
          <mxGeometry x="530" y="70" width="330" height="220" as="geometry" />
        </mxCell>
        <mxCell id="39150e848f15840c-3" value="creating player" style="verticalAlign=top;align=left;spacingTop=8;spacingLeft=2;spacingRight=12;shape=cube;size=10;direction=south;fontStyle=4;html=1;rounded=0;shadow=0;comic=0;labelBackgroundColor=none;strokeWidth=1;fontFamily=Verdana;fontSize=12" parent="1" vertex="1">
          <mxGeometry x="370" y="410" width="260" height="150" as="geometry" />
        </mxCell>
        <mxCell id="39150e848f15840c-4" value="interactive Items" style="html=1;rounded=0;shadow=0;comic=0;labelBackgroundColor=none;strokeWidth=1;fontFamily=Verdana;fontSize=12;align=center;" parent="1" vertex="1">
          <mxGeometry x="120" y="135" width="110" height="50" as="geometry" />
        </mxCell>
        <mxCell id="39150e848f15840c-5" value="&lt;div&gt;collisions - Cant walk &lt;br&gt;&lt;/div&gt;&lt;div&gt;through walls _ TP on &lt;br&gt;&lt;/div&gt;&lt;div&gt;choosen cases as doors&lt;/div&gt;&lt;div&gt;for changing maps&lt;br&gt;&lt;/div&gt;" style="shape=component;align=left;spacingLeft=36;rounded=0;shadow=0;comic=0;labelBackgroundColor=none;strokeWidth=1;fontFamily=Verdana;fontSize=12;html=1;" parent="1" vertex="1">
          <mxGeometry x="260" y="100" width="170" height="95" as="geometry" />
        </mxCell>
        <mxCell id="39150e848f15840c-6" value="non iterractive items" style="ellipse;whiteSpace=wrap;html=1;rounded=0;shadow=0;comic=0;labelBackgroundColor=none;strokeWidth=1;fontFamily=Verdana;fontSize=12;align=center;" parent="1" vertex="1">
          <mxGeometry x="290" y="230" width="150" height="40" as="geometry" />
        </mxCell>
        <mxCell id="39150e848f15840c-8" value="&lt;div&gt;enemies : &lt;br&gt;&lt;/div&gt;&lt;div&gt;trigger a pause&lt;/div&gt;&lt;div&gt;with a new &lt;br&gt;&lt;/div&gt;&lt;div&gt;interface &lt;br&gt;&lt;/div&gt;&lt;div&gt;for figthing&lt;br&gt;&lt;/div&gt;" style="html=1;rounded=0;shadow=0;comic=0;labelBackgroundColor=none;strokeWidth=1;fontFamily=Verdana;fontSize=12;align=center;" parent="1" vertex="1">
          <mxGeometry x="700" y="135" width="110" height="115" as="geometry" />
        </mxCell>
        <mxCell id="39150e848f15840c-10" value="&lt;div&gt;can interact with Items (E)&lt;/div&gt;&lt;div&gt;can have an inventory&lt;/div&gt;&lt;div&gt;can moove with ZSQD or&lt;/div&gt;&lt;div&gt;&amp;nbsp;directionnal pad&lt;br&gt;&lt;/div&gt;" style="shape=component;align=left;spacingLeft=36;rounded=0;shadow=0;comic=0;labelBackgroundColor=none;strokeWidth=1;fontFamily=Verdana;fontSize=12;html=1;" parent="1" vertex="1">
          <mxGeometry x="380" y="450" width="220" height="100" as="geometry" />
        </mxCell>
        <mxCell id="39150e848f15840c-11" style="edgeStyle=none;rounded=0;html=1;dashed=1;labelBackgroundColor=none;startArrow=none;startFill=0;startSize=8;endArrow=open;endFill=0;endSize=16;fontFamily=Verdana;fontSize=12;entryX=0.25;entryY=1;entryDx=0;entryDy=0;" parent="1" source="39150e848f15840c-10" target="39150e848f15840c-4" edge="1">
          <mxGeometry relative="1" as="geometry" />
        </mxCell>
        <mxCell id="39150e848f15840c-14" style="edgeStyle=elbowEdgeStyle;rounded=0;html=1;labelBackgroundColor=none;startArrow=none;startFill=0;startSize=8;endArrow=none;endFill=0;endSize=16;fontFamily=Verdana;fontSize=12;" parent="1" source="39150e848f15840c-6" target="39150e848f15840c-5" edge="1">
          <mxGeometry relative="1" as="geometry" />
        </mxCell>
        <mxCell id="39150e848f15840c-15" style="edgeStyle=orthogonalEdgeStyle;rounded=0;html=1;labelBackgroundColor=none;startArrow=none;startFill=0;startSize=8;endArrow=open;endFill=0;endSize=16;fontFamily=Verdana;fontSize=12;dashed=1;" parent="1" source="39150e848f15840c-5" target="39150e848f15840c-4" edge="1">
          <mxGeometry relative="1" as="geometry">
            <Array as="points">
              <mxPoint x="350" y="220" />
              <mxPoint x="215" y="220" />
            </Array>
          </mxGeometry>
        </mxCell>
        <mxCell id="39150e848f15840c-17" style="edgeStyle=orthogonalEdgeStyle;rounded=0;html=1;labelBackgroundColor=none;startArrow=none;startFill=0;startSize=8;endArrow=none;endFill=0;endSize=16;fontFamily=Verdana;fontSize=12;" parent="1" source="39150e848f15840c-3" target="39150e848f15840c-2" edge="1">
          <mxGeometry relative="1" as="geometry">
            <Array as="points">
              <mxPoint x="695" y="485" />
            </Array>
          </mxGeometry>
        </mxCell>
        <mxCell id="39150e848f15840c-18" style="edgeStyle=orthogonalEdgeStyle;rounded=0;html=1;labelBackgroundColor=none;startArrow=none;startFill=0;startSize=8;endArrow=none;endFill=0;endSize=16;fontFamily=Verdana;fontSize=12;" parent="1" source="39150e848f15840c-3" target="39150e848f15840c-1" edge="1">
          <mxGeometry relative="1" as="geometry">
            <Array as="points">
              <mxPoint x="285" y="485" />
            </Array>
          </mxGeometry>
        </mxCell>
        <mxCell id="RHqAj6nSJZXhnwZe3rLe-1" value="&lt;div&gt;Mobs : &lt;br&gt;&lt;/div&gt;&lt;div&gt;-can speak if&lt;/div&gt;&lt;div&gt;&amp;nbsp;interacting&lt;br&gt;&lt;/div&gt;" style="html=1;rounded=0;shadow=0;comic=0;labelBackgroundColor=none;strokeWidth=1;fontFamily=Verdana;fontSize=12;align=center;" vertex="1" parent="1">
          <mxGeometry x="560" y="135" width="110" height="115" as="geometry" />
        </mxCell>
        <mxCell id="RHqAj6nSJZXhnwZe3rLe-2" value="Inventory ;" style="verticalAlign=top;align=left;spacingTop=8;spacingLeft=2;spacingRight=12;shape=cube;size=10;direction=south;fontStyle=4;html=1;rounded=0;shadow=0;comic=0;labelBackgroundColor=none;strokeWidth=1;fontFamily=Verdana;fontSize=12" vertex="1" parent="1">
          <mxGeometry x="710" y="510" width="560" height="390" as="geometry" />
        </mxCell>
        <mxCell id="RHqAj6nSJZXhnwZe3rLe-3" value="fighting interface" style="verticalAlign=top;align=left;spacingTop=8;spacingLeft=2;spacingRight=12;shape=cube;size=10;direction=south;fontStyle=4;html=1;rounded=0;shadow=0;comic=0;labelBackgroundColor=none;strokeWidth=1;fontFamily=Verdana;fontSize=12" vertex="1" parent="1">
          <mxGeometry x="950" width="760" height="440" as="geometry" />
        </mxCell>
        <mxCell id="RHqAj6nSJZXhnwZe3rLe-4" value="&lt;h2&gt;Description&lt;/h2&gt;&lt;br&gt;&lt;ul&gt;&lt;li&gt;pv and xp bar on a side&lt;/li&gt;&lt;li&gt;pokemon on other side&lt;/li&gt;&lt;li&gt;open attack menu&lt;/li&gt;&lt;li&gt;dialogue box to choose between: attack, change pokemon, use item, run away.&lt;/li&gt;&lt;li&gt;higher speed begin to fight&lt;/li&gt;&lt;li&gt;using item is always first move. If 2 items used, player begins.&lt;/li&gt;&lt;li&gt;when enemy pokemon is dead:&lt;/li&gt;&lt;/ul&gt;give xp to pokemon.if pokemon more than 100% xp: up level, up stats.&lt;br&gt;&lt;p&gt;if others pokemon in enemy team: launch next pokemon&lt;/p&gt;when ally pokemon is dead:&lt;br&gt;&lt;p&gt;if other team pokemon alive, open team interface.else:  message / animation display + tp to safe zone&lt;/p&gt;&lt;div&gt;&lt;br&gt;&lt;/div&gt;" style="rounded=0;whiteSpace=wrap;html=1;" vertex="1" parent="1">
          <mxGeometry x="960" y="30" width="290" height="390" as="geometry" />
        </mxCell>
        <mxCell id="RHqAj6nSJZXhnwZe3rLe-5" value="&lt;ul&gt;&lt;li&gt;modal opening&lt;/li&gt;&lt;li&gt;show both characters&lt;/li&gt;&lt;li&gt;display dialogue with one bright character x2&lt;/li&gt;&lt;li&gt;character disapear, summon first card&lt;/li&gt;&lt;/ul&gt;&lt;div&gt;&lt;br/&gt;&lt;/div&gt;" style="rounded=0;whiteSpace=wrap;html=1;" vertex="1" parent="1">
          <mxGeometry x="1260" y="30" width="410" height="160" as="geometry" />
        </mxCell>
        <mxCell id="RHqAj6nSJZXhnwZe3rLe-6" value="&lt;ul&gt;&#xa;&lt;li&gt;when used ⇒ action&lt;/li&gt;&#xa;&lt;li&gt;add item in inventory&lt;/li&gt;&#xa;&lt;li&gt;spawn window to notice event&lt;/li&gt;&#xa;&lt;/ul&gt;&#xa;" style="rounded=1;whiteSpace=wrap;html=1;" vertex="1" parent="1">
          <mxGeometry x="720" y="555" width="210" height="130" as="geometry" />
        </mxCell>
        <mxCell id="RHqAj6nSJZXhnwZe3rLe-8" value="&lt;ul&gt;&lt;li&gt;inventory triggered on i button&lt;/li&gt;&lt;li&gt;on clic items can: be select, and switch position with another one.&lt;/li&gt;&lt;li&gt;si pv = 0 ⇒ darken&lt;/li&gt;&lt;/ul&gt;&lt;div&gt;&lt;br/&gt;&lt;/div&gt;" style="rounded=1;whiteSpace=wrap;html=1;" vertex="1" parent="1">
          <mxGeometry x="950" y="600" width="200" height="180" as="geometry" />
        </mxCell>
      </root>
    </mxGraphModel>
  </diagram>
</mxfile>
